<svg width="20" height="20" viewBox="0 0 20 20" fill="none" xmlns="http://www.w3.org/2000/svg">
<path d="M1.62602 7.31707H0V16.5854C0 18.4553 1.54472 20 3.41464 20H16.5854C18.4553 20 20 18.4553 20 16.5854V7.31707H18.374H1.62602ZM12.6016 10.7724C12.8862 10.4472 13.4553 10.4878 13.7398 10.7724C14.6342 11.5854 15.4878 12.3984 16.3821 13.252C16.7073 13.5772 16.6667 14.1057 16.3821 14.3902C15.5691 15.2846 14.7561 16.1382 13.9024 17.0325C13.5772 17.3577 13.0488 17.3171 12.7642 17.0325C12.439 16.748 12.4797 16.1789 12.7642 15.8943C13.374 15.2032 14.0244 14.5528 14.6342 13.8618C13.9431 13.2114 13.252 12.561 12.561 11.9512C12.2358 11.5854 12.2764 11.0569 12.6016 10.7724ZM9.3496 10.7724C9.63416 10.4472 10.2032 10.4878 10.4878 10.7724C11.3821 11.5854 12.2358 12.3984 13.1301 13.252C13.4553 13.5772 13.4146 14.1057 13.1301 14.3902C12.3171 15.2846 11.5041 16.1382 10.6504 17.0325C10.3252 17.3577 9.79676 17.3171 9.5122 17.0325C9.187 16.748 9.22764 16.1789 9.5122 15.8943C10.122 15.2032 10.7724 14.5528 11.3821 13.8618C10.6911 13.2114 10 12.561 9.30893 11.9512C8.98373 11.5854 9.0244 11.0569 9.3496 10.7724ZM18.374 5.69107H20V3.41464C20 1.58537 18.5366 0.0813009 16.7073 0V1.86992C16.7073 2.31707 16.3415 2.68293 15.8943 2.68293C15.4472 2.68293 15.0813 2.27642 15.0813 1.86992V0H5.04064V1.78862C5.04064 2.23578 4.6748 2.60162 4.22764 2.60162C3.78049 2.60162 3.41464 2.19512 3.41464 1.78862V0C1.54472 0 0 1.54472 0 3.41464V5.69107H1.62602H18.374Z" fill="#353535"/>
</svg>
