<svg width="20" height="18" viewBox="0 0 20 18" fill="none" xmlns="http://www.w3.org/2000/svg">
<path d="M1.6665 3.16667C1.6665 2.72464 1.8421 2.30072 2.15466 1.98816C2.46722 1.67559 2.89114 1.5 3.33317 1.5H8.33317V16.5H3.33317C2.89114 16.5 2.46722 16.3244 2.15466 16.0118C1.8421 15.6993 1.6665 15.2754 1.6665 14.8333V3.16667ZM11.6665 1.5H16.6665C17.1085 1.5 17.5325 1.67559 17.845 1.98816C18.1576 2.30072 18.3332 2.72464 18.3332 3.16667V7.33333H11.6665V1.5ZM11.6665 10.6667H18.3332V14.8333C18.3332 15.2754 18.1576 15.6993 17.845 16.0118C17.5325 16.3244 17.1085 16.5 16.6665 16.5H11.6665V10.6667Z" stroke="#FAFAFA" stroke-width="2" stroke-linecap="round" stroke-linejoin="round"/>
</svg>
