<svg width="20" height="20" viewBox="0 0 20 20" fill="none" xmlns="http://www.w3.org/2000/svg">
<path d="M19.4139 20H8.789C8.46538 20 8.20308 19.7376 8.20308 19.414V18.7891C8.20308 18.1418 8.72767 17.6172 9.37495 17.6172V16.9166C9.37495 15.989 10.1296 15.2343 11.0572 15.2343H17.1458C18.0734 15.2343 18.8281 15.989 18.8281 16.9166V17.6172C19.4754 17.6172 19.9999 18.1418 19.9999 18.7891V19.414C19.9999 19.7375 19.7374 20 19.4139 20ZM12.6666 12.904C12.2771 13.4208 11.5423 13.5242 11.0255 13.1346C10.5085 12.7452 10.4054 12.0103 10.7948 11.4933L14.321 6.81393C14.7106 6.29696 15.4453 6.1938 15.9621 6.58322C16.4791 6.97278 16.5824 7.70747 16.1928 8.22447L12.6666 12.904ZM4.24359 6.55669C3.854 7.07349 3.11928 7.17682 2.60233 6.78724C2.08553 6.39784 1.98222 5.66315 2.37179 5.14615L5.89808 0.466774C6.28749 -0.0501783 7.02233 -0.153498 7.53917 0.236073C8.05597 0.625642 8.15928 1.36033 7.76971 1.87733L4.24359 6.55669ZM6.81389 9.96091C5.94784 9.30829 5.29764 8.49791 4.891 7.64462L8.99409 2.19971C9.9264 2.35549 10.8845 2.75693 11.7507 3.40971C12.6168 4.06233 13.267 4.87271 13.6737 5.72584L9.57053 11.1711C8.63828 11.0153 7.68015 10.6137 6.81389 9.96091ZM5.23175 10.1135C5.50455 10.3915 5.79189 10.6581 6.10866 10.8969C6.42557 11.1356 6.76111 11.3383 7.10338 11.524L6.33937 12.538L4.46757 11.1276L5.23175 10.1135ZM3.76229 12.0634L5.63409 13.4738L2.1078 18.1534C1.71823 18.6704 0.983544 18.7735 0.466708 18.384C-0.0502445 17.9945 -0.153409 17.2598 0.236005 16.7428L3.76229 12.0634Z" fill="#353535"/>
</svg>
