<svg width="120" height="32" viewBox="0 0 120 32" fill="none" xmlns="http://www.w3.org/2000/svg">
<path d="M59.3346 15.9997C59.3346 16.3679 59.6331 16.6663 60.0013 16.6663C60.3695 16.6663 60.668 16.3679 60.668 15.9997C60.668 15.6315 60.3695 15.333 60.0013 15.333C59.6331 15.333 59.3346 15.6315 59.3346 15.9997Z" stroke="#09090B" stroke-width="1.33333" stroke-linecap="round" stroke-linejoin="round"/>
<path d="M59.3346 20.6667C59.3346 21.0349 59.6331 21.3333 60.0013 21.3333C60.3695 21.3333 60.668 21.0349 60.668 20.6667C60.668 20.2985 60.3695 20 60.0013 20C59.6331 20 59.3346 20.2985 59.3346 20.6667Z" stroke="#09090B" stroke-width="1.33333" stroke-linecap="round" stroke-linejoin="round"/>
<path d="M59.3346 11.3337C59.3346 11.7018 59.6331 12.0003 60.0013 12.0003C60.3695 12.0003 60.668 11.7018 60.668 11.3337C60.668 10.9655 60.3695 10.667 60.0013 10.667C59.6331 10.667 59.3346 10.9655 59.3346 11.3337Z" stroke="#09090B" stroke-width="1.33333" stroke-linecap="round" stroke-linejoin="round"/>
</svg>
